<svg width="14" height="14" fill="none" xmlns="http://www.w3.org/2000/svg"><path d="M14 .781a.783.783 0 00-.25-.562C13.594.094 13.406 0 13.219 0H.78a.775.775 0 00-.56.219A.753.753 0 000 .78v12.44c0 .219.063.406.219.562.125.156.312.219.562.219H7.47V8.562H5.656V6.47H7.47V4.906c0-.875.25-1.562.75-2.062.5-.469 1.156-.719 1.969-.719.624 0 1.187.031 1.624.063v1.906h-1.124c-.407 0-.688.093-.844.281-.125.156-.188.406-.188.75v1.344h2.094l-.281 2.093H9.656V14h3.563a.753.753 0 00.562-.219.898.898 0 00.219-.562V.78z" fill="#707070"/></svg>