<svg width="14" height="14" fill="none" xmlns="http://www.w3.org/2000/svg"><path d="M7 3.406c.625 0 1.219.188 1.781.5.563.313 1 .75 1.313 1.313.312.562.5 1.156.5 1.781 0 .656-.188 1.25-.5 1.813-.313.562-.75 1-1.313 1.312A3.614 3.614 0 017 10.594c-.656 0-1.25-.156-1.813-.469-.562-.313-1-.75-1.312-1.313A3.645 3.645 0 013.406 7c0-.625.156-1.219.469-1.781.313-.563.75-1 1.313-1.313.562-.312 1.156-.5 1.812-.5zm0 5.938c.625 0 1.188-.219 1.656-.688.438-.437.688-1 .688-1.656 0-.625-.25-1.188-.688-1.656-.469-.438-1.031-.688-1.656-.688-.656 0-1.219.25-1.656.688A2.267 2.267 0 004.656 7c0 .656.219 1.219.688 1.656.437.469 1 .688 1.656.688zm4.594-6.094c0-.219-.094-.406-.25-.594-.188-.156-.375-.25-.594-.25a.8.8 0 00-.594.25.781.781 0 00-.25.594c0 .25.063.438.25.594.156.187.344.25.594.25a.679.679 0 00.563-.25.967.967 0 00.28-.594zm2.375.844c0 .593.031 1.562.031 2.906 0 1.375-.031 2.344-.063 2.938a6.814 6.814 0 01-.25 1.53c-.187.532-.5 1-.874 1.376a3.767 3.767 0 01-1.344.844c-.438.156-.969.25-1.563.28C9.312 14 8.344 14 7 14c-1.375 0-2.344 0-2.938-.031-.593-.031-1.093-.125-1.53-.313-.532-.156-1-.437-1.376-.812a3.636 3.636 0 01-.843-1.375C.155 11.03.063 10.53.03 9.938 0 9.344 0 8.374 0 7c0-1.344 0-2.313.031-2.906C.063 3.5.156 2.969.312 2.53c.188-.5.47-.969.844-1.344A3.702 3.702 0 012.531.313a6.809 6.809 0 011.531-.25A57.747 57.747 0 017 0c1.344 0 2.313.031 2.906.063a7.11 7.11 0 011.563.25c.5.187.969.5 1.344.875.374.375.687.843.874 1.343.126.438.22.969.282 1.563zm-1.5 7.031c.125-.344.187-.906.25-1.688 0-.437.031-1.093.031-1.937v-1c0-.844-.031-1.5-.031-1.938-.063-.78-.125-1.343-.25-1.687a2.37 2.37 0 00-1.344-1.344c-.344-.125-.906-.187-1.688-.25-.468 0-1.124-.031-1.937-.031h-1c-.844 0-1.5.031-1.938.031-.78.063-1.343.125-1.687.25-.656.25-1.094.719-1.344 1.344-.125.344-.218.906-.25 1.688C1.25 5.03 1.25 5.688 1.25 6.5v1c0 .844 0 1.5.031 1.938.032.78.125 1.343.25 1.687.25.656.719 1.094 1.344 1.344.344.125.906.219 1.688.25.437.031 1.093.031 1.937.031h1c.844 0 1.5 0 1.938-.031.78-.031 1.343-.125 1.687-.25a2.37 2.37 0 001.344-1.344z" fill="#707070"/></svg>