<svg width="16" height="16" fill="none" xmlns="http://www.w3.org/2000/svg"><path d="M15.5 8a7.685 7.685 0 00-1.063-3.875 7.59 7.59 0 00-2.812-2.813A7.685 7.685 0 007.75.25c-1.406 0-2.688.375-3.875 1.063C2.687 2 1.719 2.938 1.031 4.124A7.655 7.655 0 000 8c0 1.625.438 3.094 1.344 4.406a7.437 7.437 0 003.593 2.813c-.125-.938-.093-1.688.032-2.219l.875-3.844C5.687 8.844 5.625 8.47 5.625 8c0-.531.125-.969.406-1.344.25-.343.594-.531 1-.531.313 0 .532.125.719.313.156.187.25.437.25.75 0 .312-.125.843-.344 1.593-.156.438-.25.781-.281 1-.094.375-.031.719.219 1 .218.281.531.406.937.406.688 0 1.25-.312 1.719-1 .469-.656.719-1.5.719-2.562 0-.906-.313-1.656-.906-2.25-.626-.594-1.407-.906-2.344-.906-.719 0-1.344.187-1.875.5-.532.312-.938.75-1.219 1.25a3.301 3.301 0 00-.406 1.625c0 .343.031.687.156 1 .094.312.219.594.406.781.063.063.063.156.063.219l-.219.875c-.031.125-.125.156-.25.094-.469-.188-.844-.594-1.156-1.188a3.782 3.782 0 01-.438-1.813c0-.812.188-1.593.594-2.312.406-.719.969-1.281 1.719-1.719.812-.437 1.75-.656 2.812-.656a5.4 5.4 0 012.438.594 4.436 4.436 0 011.719 1.594c.406.687.624 1.468.624 2.343s-.187 1.657-.53 2.375c-.345.75-.813 1.313-1.438 1.75-.625.438-1.281.625-2.031.625-.407 0-.782-.062-1.094-.25-.344-.156-.563-.375-.688-.625l-.5 1.844c-.125.531-.437 1.219-.937 2.031.718.25 1.468.344 2.281.344a7.656 7.656 0 003.875-1.031c1.188-.688 2.125-1.656 2.813-2.844C15.124 10.687 15.5 9.406 15.5 8z" fill="#707070"/></svg>