<svg width="14" height="14" fill="none" xmlns="http://www.w3.org/2000/svg"><path d="M11.906 2.031a7.907 7.907 0 011.531 2.281c.376.844.563 1.72.563 2.625 0 1.25-.344 2.407-.969 3.47-.625 1.062-1.5 1.905-2.562 2.53A6.72 6.72 0 017 13.876c-1.188 0-2.313-.281-3.313-.844L0 14l1-3.594a6.72 6.72 0 01-.938-3.469c0-1.25.313-2.406.938-3.468A7.02 7.02 0 013.531.938 6.72 6.72 0 017 0a6.91 6.91 0 012.625.531 8.483 8.483 0 012.281 1.5zM7 12.72c1.031 0 2-.25 2.906-.781a5.93 5.93 0 002.125-2.094 5.505 5.505 0 00.813-2.906c0-.75-.156-1.47-.469-2.188a6.366 6.366 0 00-3.188-3.156A5.813 5.813 0 007 1.156a5.778 5.778 0 00-2.906.782A5.93 5.93 0 002 4.063c-.531.875-.781 1.843-.781 2.875 0 1.125.281 2.125.906 3.062l.125.219-.594 2.125 2.188-.563.219.125c.875.563 1.875.813 2.937.813zm3.156-4.344l.094.063c.125.062.219.124.25.156v.312c0 .188-.063.344-.125.531-.063.188-.25.344-.5.532-.25.187-.469.281-.656.281a1.916 1.916 0 01-.844 0 5.012 5.012 0 01-1.25-.438C6.062 9.376 5.094 8.5 4.219 7.25l-.063-.063c-.468-.625-.687-1.218-.687-1.78 0-.532.187-1 .562-1.407l.032-.031c.125-.125.28-.219.468-.219h.375c.063 0 .125.031.188.063.062.03.093.093.156.218l.531 1.282c.063.125.063.25.032.312a2.6 2.6 0 01-.407.563c-.093.093-.156.156-.156.218-.031.063 0 .094.063.157.28.562.625.968 1.03 1.28.282.25.72.5 1.313.782.157.094.282.094.375-.031.25-.313.438-.531.563-.688.031-.062.094-.125.156-.125.063 0 .125.032.219.032.156.062.562.25 1.187.562z" fill="#707070"/></svg>