<svg width="18" height="12" fill="none" xmlns="http://www.w3.org/2000/svg"><path d="M17.188 1.875c.125.563.25 1.438.312 2.563L17.531 6 17.5 7.563c-.063 1.187-.188 2.03-.313 2.593a2.354 2.354 0 01-.562.938 2.038 2.038 0 01-.969.562c-.562.156-1.812.25-3.812.313L9 12l-2.844-.031c-2-.063-3.281-.156-3.812-.313a1.902 1.902 0 01-.969-.562 1.813 1.813 0 01-.563-.938C.656 9.594.563 8.75.5 7.562L.469 6c0-.438 0-.969.031-1.563.063-1.125.156-2 .313-2.562.093-.375.28-.688.562-.969.25-.25.594-.437.969-.562C2.875.219 4.156.094 6.156.03L9 0l2.844.031c2 .063 3.25.188 3.812.313.375.125.688.312.969.562.25.281.438.594.563.969zM7.25 8.563L11.719 6 7.25 3.469v5.094z" fill="#707070"/></svg>